<svg width="192" height="192" viewBox="0 0 192 192" fill="none" xmlns="http://www.w3.org/2000/svg">
<rect width="192" height="192" rx="24" fill="#0F1419"/>
<rect x="16" y="16" width="160" height="160" rx="16" fill="url(#gradient)"/>
<!-- Skull icon representing NoMercy gaming theme -->
<path d="M96 48C87.1634 48 80 55.1634 80 64V80C80 84.4183 83.5817 88 88 88H104C108.418 88 112 84.4183 112 80V64C112 55.1634 104.837 48 96 48Z" fill="#FF6B35"/>
<path d="M72 96C67.5817 96 64 99.5817 64 104V136C64 140.418 67.5817 144 72 144H88C92.4183 144 96 140.418 96 136V104C96 99.5817 92.4183 96 88 96H72Z" fill="#FF6B35"/>
<path d="M104 96C99.5817 96 96 99.5817 96 104V136C96 140.418 99.5817 144 104 144H120C124.418 144 128 140.418 128 136V104C128 99.5817 124.418 96 120 96H104Z" fill="#FF6B35"/>
<!-- Eyes -->
<circle cx="84" cy="76" r="6" fill="#1A202C"/>
<circle cx="108" cy="76" r="6" fill="#1A202C"/>
<!-- Nose -->
<path d="M96 88L90 100L102 100Z" fill="#1A202C"/>
<defs>
<linearGradient id="gradient" x1="96" y1="16" x2="96" y2="176" gradientUnits="userSpaceOnUse">
<stop stop-color="#2D3748"/>
<stop offset="1" stop-color="#1A202C"/>
</linearGradient>
</defs>
</svg>